HIERARCHY
ROOT SpineBase
{
  OFFSET 0.000000 0.000000 0.000000
  CHANNELS 6 Xposition Yposition Zposition Zrotation Xrotation Yrotation
  JOINT SpineMid
  {
    OFFSET 0.000000 32.428398 0.000000
    CHANNELS 3 Zrotation Xrotation Yrotation
    JOINT SpineShoulder
    {
      OFFSET -0.276288 23.743656 -0.534898
      CHANNELS 3 Zrotation Xrotation Yrotation
      JOINT Neck
      {
        OFFSET -0.155803 7.768038 -0.523147
        CHANNELS 3 Zrotation Xrotation Yrotation
        JOINT Head
        {
          OFFSET -4.130015 11.612898 2.595254
          CHANNELS 3 Zrotation Xrotation Yrotation
          End Site
          {
            OFFSET 0 0 0
          }
        }
      }
      JOINT ShoulderLeft
      {
        OFFSET -8.868718 -4.458190 15.230250
        CHANNELS 3 Zrotation Xrotation Yrotation
        JOINT ElbowLeft
        {
          OFFSET -8.834975 -21.561498 19.471671
          CHANNELS 3 Zrotation Xrotation Yrotation
          JOINT WristLeft
          {
            OFFSET -0.542246 -29.653025 -8.385084
            CHANNELS 3 Zrotation Xrotation Yrotation
            JOINT HandLeft
            {
              OFFSET -3.036907 -1.721239 1.340491
              CHANNELS 3 Zrotation Xrotation Yrotation
              JOINT HandTipLeft
              {
                OFFSET -2.877243 -4.974351 -1.528449
                CHANNELS 3 Zrotation Xrotation Yrotation
                End Site
                {
                  OFFSET 0 0 0
                }
              }
              JOINT ThumbLeft
              {
                OFFSET -2.868102 0.372043 -3.753648
                CHANNELS 3 Zrotation Xrotation Yrotation
                End Site
                {
                  OFFSET 0 0 0
                }
              }
            }
          }
        }
      }
      JOINT ShoulderRight
      {
        OFFSET 6.266152 -2.262880 -14.834227
        CHANNELS 3 Zrotation Xrotation Yrotation
        JOINT ElbowRight
        {
          OFFSET 2.756076 -22.992339 -5.976838
          CHANNELS 3 Zrotation Xrotation Yrotation
          JOINT WristRight
          {
            OFFSET -27.864289 -13.990032 11.017839
            CHANNELS 3 Zrotation Xrotation Yrotation
            JOINT HandRight
            {
              OFFSET -2.929870 1.414736 2.191669
              CHANNELS 3 Zrotation Xrotation Yrotation
              JOINT HandTipRight
              {
                OFFSET -3.999603 -1.454247 3.716043
                CHANNELS 3 Zrotation Xrotation Yrotation
                End Site
                {
                  OFFSET 0 0 0
                }
              }
              JOINT ThumbRight
              {
                OFFSET -0.447846 3.249740 -1.606157
                CHANNELS 3 Zrotation Xrotation Yrotation
                End Site
                {
                  OFFSET 0 0 0
                }
              }
            }
          }
        }
      }
    }
  }
  JOINT HipLeft
  {
    OFFSET -3.127860 0.021238 2.733266
    CHANNELS 3 Zrotation Xrotation Yrotation
    JOINT KneeLeft
    {
      OFFSET -3.332411 -31.439374 12.113297
      CHANNELS 3 Zrotation Xrotation Yrotation
      JOINT AnkleLeft
      {
        OFFSET 12.545429 -31.748341 11.801518
        CHANNELS 3 Zrotation Xrotation Yrotation
        JOINT FootLeft
        {
          OFFSET -6.449561 -6.350467 -6.641889
          CHANNELS 3 Zrotation Xrotation Yrotation
          End Site
          {
            OFFSET 0 0 0
          }
        }
      }
    }
  }
  JOINT HipRight
  {
    OFFSET 2.284545 2.186822 -10.381642
    CHANNELS 3 Zrotation Xrotation Yrotation
    JOINT KneeRight
    {
      OFFSET 5.060254 -34.265867 -1.287987
      CHANNELS 3 Zrotation Xrotation Yrotation
      JOINT AnkleRight
      {
        OFFSET 9.330973 -35.259290 0.511719
        CHANNELS 3 Zrotation Xrotation Yrotation
        JOINT FootRight
        {
          OFFSET -10.100083 -4.057684 -8.431166
          CHANNELS 3 Zrotation Xrotation Yrotation
          End Site
          {
            OFFSET 0 0 0
          }
        }
      }
    }
  }
}
MOTION
Frames: 9
Frame Time: 0.033333
47.239732 76.608407 339.216405 -0.000000 0.000000 67.574500 -0.000000 0.000000 -67.574500 -0.000000 0.000000 0.000000 -0.000000 0.000000 0.000000 0.000000 0.000000 0.000000 -0.000000 0.000000 0.000000 -0.000000 0.000000 0.000000 -0.000000 0.000000 0.000000 -0.000000 0.000000 0.000000 0.000000 0.000000 0.000000 0.000000 0.000000 0.000000 -0.000000 0.000000 0.000000 -0.000000 0.000000 0.000000 -0.000000 0.000000 0.000000 -0.000000 0.000000 0.000000 0.000000 0.000000 0.000000 0.000000 0.000000 0.000000 -0.000000 0.000000 -67.574500 -0.000000 0.000000 0.000000 -0.000000 0.000000 0.000000 0.000000 0.000000 0.000000 -0.000000 0.000000 -67.574500 -0.000000 0.000000 0.000000 -0.000000 0.000000 0.000000 0.000000 0.000000 0.000000
46.400760 76.591904 343.926016 0.610461 -1.497538 63.238262 -0.361301 -0.024237 -63.237473 -0.045093 -0.071298 0.002132 -1.344987 -0.351110 -0.570687 0.000000 0.000000 0.000000 1.896473 5.866008 0.341407 -2.780973 -8.499419 -0.415942 31.246834 15.703947 -2.916703 -25.067061 -15.377502 -3.708149 0.000000 0.000000 0.000000 0.000000 0.000000 0.000000 0.779665 0.863017 -0.450443 -1.956986 3.323933 -4.689079 13.224290 -1.147838 -10.179510 -10.858163 1.002654 9.595666 0.000000 0.000000 0.000000 0.000000 0.000000 0.000000 3.604604 1.854531 -63.359339 -2.457797 -2.953743 -0.915132 -0.255373 2.451600 1.009657 0.000000 0.000000 0.000000 7.192269 3.781428 -62.550143 -0.717684 -3.878062 -0.284636 1.066012 -2.362904 -3.535073 0.000000 0.000000 0.000000
45.640684 76.604866 348.131957 1.165988 -2.787088 59.057603 -0.628183 -0.073346 -59.036200 -0.086908 -0.106909 0.007540 -2.477126 -0.807847 -1.087719 0.000000 0.000000 0.000000 3.718195 11.121636 0.433563 -5.706756 -16.366861 -1.094196 52.556147 23.545502 -11.700425 -38.161402 -25.823984 -5.777294 0.000000 0.000000 0.000000 0.000000 0.000000 0.000000 1.460577 1.500911 -0.889649 -3.633373 6.513958 -9.257913 22.288976 -2.316975 -14.557153 -18.193768 0.904415 13.967008 0.000000 0.000000 0.000000 0.000000 0.000000 0.000000 6.460590 3.905539 -59.398415 -4.604127 -5.271189 -1.789370 0.141804 3.818559 1.642646 0.000000 0.000000 0.000000 12.421848 7.663703 -58.302977 -1.343066 -7.157205 -0.637318 2.207789 -4.228267 -6.477044 0.000000 0.000000 0.000000
44.959505 76.647292 351.834229 1.661190 -3.853517 55.193245 -0.803260 -0.127263 -55.139704 -0.123752 -0.114282 0.015309 -3.366424 -1.336542 -1.560437 0.000000 0.000000 0.000000 5.495922 15.753302 0.342732 -8.844387 -23.440115 -2.076340 64.967313 26.276502 -19.808493 -41.321608 -33.019530 -4.695039 0.000000 0.000000 0.000000 0.000000 0.000000 0.000000 2.038749 1.917955 -1.296383 -5.016871 9.451423 -13.525707 28.412991 -2.671666 -15.456217 -22.874428 0.764946 15.183304 0.000000 0.000000 0.000000 0.000000 0.000000 0.000000 8.610426 5.959255 -55.807909 -6.426828 -6.956564 -2.535261 1.165604 4.203194 1.835041 0.000000 0.000000 0.000000 15.872126 11.135550 -54.734122 -1.846450 -9.835110 -1.001935 3.444917 -5.602619 -8.910750 0.000000 0.000000 0.000000
44.357222 76.719183 355.032830 2.091356 -4.685350 51.792652 -0.892074 -0.167217 -51.702871 -0.154182 -0.099655 0.024664 -3.988896 -1.906797 -1.994287 0.000000 0.000000 0.000000 7.246106 19.765339 0.128918 -12.250710 -29.588878 -3.404652 71.979697 27.059863 -26.161800 -39.454926 -37.714281 -1.906918 0.000000 0.000000 0.000000 0.000000 0.000000 0.000000 2.511120 2.120237 -1.653297 -6.122389 12.029547 -17.326195 32.678983 -2.331098 -14.729392 -25.944529 0.647169 14.867200 0.000000 0.000000 0.000000 0.000000 0.000000 0.000000 10.139261 7.832258 -52.680936 -7.911779 -8.023840 -3.081323 2.824410 3.630567 1.568666 0.000000 0.000000 0.000000 17.815924 13.820331 -51.735986 -2.209800 -11.989049 -1.347579 4.807822 -6.506321 -10.919156 0.000000 0.000000 0.000000
43.833835 76.820538 357.727761 2.452570 -5.274555 48.977718 -0.901243 -0.177976 -48.853903 -0.177016 -0.067705 0.034991 -4.326391 -2.493221 -2.390550 0.000000 0.000000 0.000000 8.974410 23.174389 -0.151283 -15.960294 -34.715326 -5.106146 75.506719 27.202137 -30.943621 -35.684475 -39.974672 1.043669 0.000000 0.000000 0.000000 0.000000 0.000000 0.000000 2.875668 2.114141 -1.947119 -6.984915 14.167031 -20.524310 35.701949 -1.580124 -13.414247 -28.049481 0.421449 13.854511 0.000000 0.000000 0.000000 0.000000 0.000000 0.000000 11.155015 9.370552 -50.089880 -9.046829 -8.490723 -3.372991 5.162672 2.045977 0.868155 0.000000 0.000000 0.000000 18.523716 15.453697 -49.247136 -2.424344 -13.710222 -1.661385 6.338284 -6.970642 -12.583601 0.000000 0.000000 0.000000
43.236051 76.943650 360.431435 2.727180 -5.925177 46.758270 -0.707267 -0.158054 -46.607468 -0.142930 -0.052336 0.048375 -4.506647 -3.016454 -2.799242 0.000000 0.000000 0.000000 11.301561 27.191529 -0.611116 -22.161858 -40.180185 -8.217605 77.295813 27.065483 -35.640722 -29.786829 -38.562766 2.425714 0.000000 0.000000 0.000000 0.000000 0.000000 0.000000 3.090114 2.177124 -2.210074 -7.430575 15.986193 -23.363679 38.629701 -0.339704 -12.419663 -30.094311 0.665959 10.828583 0.000000 0.000000 0.000000 0.000000 0.000000 0.000000 12.155179 10.843116 -48.124757 -9.123984 -7.473179 -2.483569 12.606314 -6.665203 -0.685974 0.000000 0.000000 0.000000 18.379529 15.967194 -47.242361 -2.288705 -15.308664 -1.946224 10.038722 -8.787772 -14.167348 0.000000 0.000000 0.000000
42.815231 77.140883 361.950736 2.883402 -5.884056 46.159893 -0.416078 -0.044450 -46.003747 -0.121587 -0.010968 0.063152 -4.321722 -4.175840 -3.256891 0.000000 0.000000 0.000000 13.191752 29.472343 -0.824804 -28.392591 -43.639647 -11.649032 77.474200 26.833457 -40.474370 -29.111411 -35.168222 1.911867 0.000000 0.000000 0.000000 0.000000 0.000000 0.000000 3.097875 1.402158 -2.323912 -7.806829 17.139913 -24.897798 40.369863 0.648298 -11.855373 -32.299914 -1.858911 8.692253 0.000000 0.000000 0.000000 0.000000 0.000000 0.000000 12.263736 11.003169 -47.494296 -8.754372 -5.948105 -1.488120 17.460573 -13.615248 -0.820858 0.000000 0.000000 0.000000 16.596751 13.954460 -46.496628 -2.008045 -15.726216 -2.093535 12.168428 -8.465043 -15.271286 0.000000 0.000000 0.000000
42.547851 77.367140 362.973524 3.054879 -5.535072 45.838075 -0.449775 0.004555 -45.673226 -0.153248 0.131938 0.069925 -3.586871 -4.491474 -3.411418 0.000000 0.000000 0.000000 14.281103 30.355782 -0.834515 -30.599113 -43.933085 -13.092549 70.935181 27.761235 -39.835636 -26.124761 -32.728618 4.054648 0.000000 0.000000 0.000000 0.000000 0.000000 0.000000 2.880940 0.661256 -2.272821 -8.160418 17.868419 -26.029169 41.099142 1.686749 -10.545144 -32.227925 -1.758115 8.272914 0.000000 0.000000 0.000000 0.000000 0.000000 0.000000 12.327932 10.758098 -47.018494 -9.367220 -5.238788 -1.383200 21.389549 -17.289936 -1.129554 0.000000 0.000000 0.000000 14.305178 11.225259 -46.006629 -1.862007 -16.083097 -2.318806 10.028562 -3.013935 -17.234587 0.000000 0.000000 0.000000
